<svg width="1686" height="334" viewBox="-123 0 1686 334" fill="none" xmlns="http://www.w3.org/2000/svg">
<g clip-path="url(#clip0)">
<path d="M-113.15 150.762C-101.109 139.264 -87.1219 130.621 -71.239 124.884C-55.0852 119.123 -38.636 116.267 -21.9405 116.267C-4.67861 116.267 9.8253 118.458 21.6205 122.841C33.6619 126.953 43.3887 133.527 50.8007 142.563C58.1881 151.329 63.5316 162.556 66.8313 176.246C70.4019 189.665 72.1749 205.694 72.1749 224.309V327.427H10.5394V305.661H9.30818C4.11238 314.155 -3.84138 320.729 -14.5285 325.383C-24.9447 330.037 -36.2966 332.376 -48.6336 332.376C-56.8582 332.376 -65.3537 331.268 -74.0955 329.101C-82.8618 326.91 -90.9387 323.339 -98.3261 318.415C-105.443 313.491 -111.328 306.916 -115.982 298.693C-120.661 290.444 -123 280.324 -123 268.259C-123 253.462 -119.035 241.544 -111.082 232.508C-102.857 223.472 -92.4654 216.479 -79.8576 211.555C-66.9789 206.63 -52.7459 203.331 -37.1339 201.706C-21.5219 200.056 -6.32847 199.243 8.47095 199.243V195.969C8.47095 185.824 4.90037 178.438 -2.21615 173.784C-9.33267 168.86 -18.099 166.397 -28.5153 166.397C-38.0942 166.397 -47.427 168.441 -56.4642 172.553C-65.2306 176.665 -72.7657 181.589 -79.0696 187.351L-113.15 150.762ZM10.5394 238.27H1.92079C-5.4666 238.27 -13.0017 238.688 -20.6846 239.501C-28.072 240.042 -34.7945 241.274 -40.8276 243.194C-46.5898 245.115 -51.3669 247.995 -55.2084 251.812C-59.0498 255.382 -60.9705 260.159 -60.9705 266.191C-60.9705 270.032 -60.1579 273.307 -58.5081 276.04C-56.5873 278.773 -54.2726 280.965 -51.5147 282.614C-48.7813 284.264 -45.6294 285.495 -42.0588 286.308C-38.4882 286.849 -35.0654 287.12 -31.7903 287.12C-18.099 287.12 -7.68282 283.427 -0.566292 276.015C6.82109 268.358 10.5394 258.066 10.5394 245.213V238.27Z" fill="#101F54"/>
<path d="M274.887 224.727C274.887 218.153 273.656 211.726 271.193 205.423C269.002 199.12 265.727 193.506 261.343 188.582C257.231 183.657 252.158 179.668 246.15 176.664C240.117 173.661 233.271 172.134 225.613 172.134C217.659 172.134 210.69 173.636 204.657 176.664C198.624 179.668 193.552 183.657 189.464 188.582C185.352 193.235 182.2 198.726 180.008 205.005C178.087 211.308 177.127 217.734 177.127 224.308C177.127 230.882 178.087 237.457 180.008 244.031C182.2 250.334 185.352 255.948 189.464 260.872C193.576 265.797 198.649 269.785 204.657 272.789C210.69 275.793 217.659 277.32 225.613 277.32C233.271 277.32 240.142 275.818 246.15 272.789C252.183 269.785 257.256 265.797 261.343 260.872C265.727 255.948 269.002 250.334 271.193 244.031C273.656 237.727 274.887 231.301 274.887 224.727ZM277.349 327.426V300.711H276.537C269.962 311.126 260.506 319.202 248.194 324.939C236.152 330.405 223.274 333.163 209.582 333.163C194.241 333.163 180.55 330.159 168.484 324.127C156.418 318.094 146.149 310.166 137.678 300.292C129.454 290.148 123.15 278.526 118.767 265.378C114.383 252.23 112.192 238.54 112.192 224.284C112.192 210.027 114.383 196.485 118.767 183.608C123.421 170.46 129.872 158.961 138.072 149.088C146.568 139.239 156.689 131.433 168.484 125.672C180.525 119.91 193.97 117.054 208.745 117.054C223.815 117.054 236.546 119.935 246.963 125.672C257.379 131.433 265.456 137.712 271.193 144.582H272.006V16.8418H339.379V327.426H277.349Z" fill="#101F54"/>
<path d="M654.202 327.426V215.69C654.202 209.929 653.783 204.462 652.971 199.267C652.158 193.801 650.631 189.123 648.44 185.306C646.248 181.49 643.244 178.461 639.402 176.27C635.832 173.808 631.055 172.577 625.022 172.577C619.259 172.577 614.211 173.808 609.828 176.27C605.716 178.732 602.17 182.032 599.141 186.119C596.408 190.231 594.339 195.032 592.985 200.498C591.606 205.694 590.941 211.184 590.941 216.921V327.426H523.568V210.741C523.568 198.972 521.229 189.64 516.575 182.795C511.921 175.95 504.533 172.527 494.388 172.527C483.701 172.527 475.353 176.763 469.32 185.257C463.558 193.752 460.701 204.167 460.701 216.478V327.401H392.885V122.84H458.214V151.18H459.027C461.489 146.797 464.493 142.562 468.064 138.45C471.906 134.338 476.412 130.793 481.632 127.764C486.828 124.49 492.59 121.88 498.894 119.959C505.469 118.039 512.585 117.078 520.268 117.078C535.068 117.078 547.528 120.082 557.649 126.115C568.065 132.147 576.142 140.765 581.879 151.993C588.725 141.307 597.491 132.812 608.178 126.509C618.865 120.205 631.867 117.054 647.208 117.054C661.171 117.054 672.818 119.664 682.126 124.859C691.705 129.783 699.388 136.358 705.126 144.581C710.888 152.534 714.975 161.571 717.463 171.69C720.196 181.539 721.575 191.265 721.575 200.868V327.401H654.202V327.426Z" fill="#101F54"/>
<path d="M840.662 122.84H773.289V327.426H840.662V122.84Z" fill="#101F54"/>
<path d="M1026.77 177.87C1023.77 177.058 1020.74 176.491 1017.74 176.221C1015 175.95 1012.27 175.802 1009.51 175.802C1000.47 175.802 992.816 177.452 986.512 180.726C980.479 184.001 975.554 187.99 971.712 192.644C968.142 197.297 965.556 202.369 963.906 207.835C962.257 213.302 961.444 218.103 961.444 222.215V327.376H894.071V122.84H958.981V152.411H959.794C964.99 141.996 972.402 133.501 981.981 126.927C991.56 120.353 1002.67 117.078 1015.27 117.078C1018.01 117.078 1020.62 117.226 1023.08 117.497C1025.81 117.768 1028 118.186 1029.65 118.728L1026.77 177.87Z" fill="#101F54"/>
<path d="M1047.65 150.762C1059.72 139.264 1073.68 130.621 1089.57 124.884C1105.72 119.123 1122.17 116.267 1138.86 116.267C1156.13 116.267 1170.63 118.458 1182.43 122.841C1194.47 126.953 1204.19 133.527 1211.61 142.563C1218.99 151.329 1224.34 162.556 1227.64 176.246C1231.21 189.665 1232.98 205.694 1232.98 224.309V327.427H1171.34V305.661H1170.11C1164.92 314.155 1156.96 320.729 1146.28 325.383C1135.86 330.037 1124.51 332.376 1112.17 332.376C1103.95 332.376 1095.45 331.268 1086.71 329.101C1077.94 326.91 1069.87 323.339 1062.48 318.415C1055.36 313.491 1049.48 306.916 1044.8 298.693C1040.12 290.469 1037.8 280.349 1037.8 268.284C1037.8 253.486 1041.77 241.569 1049.72 232.533C1057.95 223.496 1068.34 216.504 1080.95 211.579C1093.83 206.655 1108.06 203.355 1123.67 201.73C1139.28 200.081 1154.5 199.268 1169.28 199.268V195.993C1169.28 185.849 1165.71 178.462 1158.59 173.809C1151.47 168.884 1142.71 166.422 1132.29 166.422C1122.71 166.422 1113.38 168.466 1104.34 172.578C1095.57 176.689 1088.04 181.614 1081.74 187.376L1047.65 150.762ZM1171.34 238.27H1162.73C1155.34 238.27 1147.8 238.688 1140.12 239.501C1132.73 240.042 1126.01 241.274 1119.98 243.194C1114.21 245.115 1109.44 247.995 1105.6 251.812C1101.75 255.382 1099.83 260.159 1099.83 266.191C1099.83 270.032 1100.65 273.307 1102.3 276.04C1104.22 278.773 1106.53 280.965 1109.29 282.614C1112.02 284.264 1115.18 285.495 1118.75 286.308C1122.32 286.849 1125.74 287.12 1129.01 287.12C1142.71 287.12 1153.12 283.427 1160.24 276.015C1167.63 268.358 1171.34 258.066 1171.34 245.213V238.27Z" fill="#101F54"/>
<path d="M1352.29 16.8418H1284.08V327.426H1352.29V16.8418Z" fill="#101F54"/>
<path d="M1526.02 183.214C1520.55 178.019 1514.1 173.636 1506.71 170.066C1499.32 166.496 1491.52 164.723 1483.29 164.723C1476.99 164.723 1471.1 165.954 1465.61 168.416C1460.42 170.879 1457.81 175.138 1457.81 181.146C1457.81 186.908 1460.69 190.995 1466.42 193.482C1472.46 195.944 1482.04 198.677 1495.19 201.706C1502.84 203.355 1510.53 205.67 1518.19 208.698C1526.14 211.702 1533.26 215.691 1539.56 220.615C1545.86 225.54 1550.94 231.572 1554.75 238.688C1558.59 245.804 1560.52 254.299 1560.52 264.172C1560.52 277.049 1557.91 288.006 1552.71 297.043C1547.51 305.808 1540.67 312.924 1532.17 318.415C1523.95 323.881 1514.64 327.87 1504.22 330.332C1493.81 332.794 1483.42 334.025 1473 334.025C1456.28 334.025 1439.85 331.415 1423.7 326.22C1407.82 320.754 1394.52 312.801 1383.83 302.386L1421.63 262.547C1427.67 269.121 1435.05 274.587 1443.82 278.97C1452.59 283.353 1461.89 285.544 1471.77 285.544C1477.23 285.544 1482.58 284.313 1487.8 281.851C1493.27 279.118 1496.02 274.464 1496.02 267.89C1496.02 261.587 1492.75 256.933 1486.17 253.929C1479.6 250.925 1469.33 247.774 1455.34 244.474C1448.23 242.825 1441.11 240.633 1433.97 237.9C1426.85 235.167 1420.4 231.474 1414.66 226.796C1409.2 222.142 1404.67 216.38 1401.1 209.535C1397.52 202.69 1395.75 194.467 1395.75 184.889C1395.75 172.553 1398.36 162.162 1403.56 153.668C1408.75 144.902 1415.48 137.786 1423.7 132.296C1431.93 126.83 1440.96 122.841 1450.81 120.379C1460.96 117.645 1470.96 116.267 1480.81 116.267C1496.15 116.267 1511.07 118.729 1525.6 123.653C1540.4 128.307 1552.86 135.423 1562.98 145.025L1526.02 183.214Z" fill="#101F54"/>
<path d="M849.107 40.2573C849.107 51.7559 844.995 61.3585 836.77 69.016C828.816 76.6735 819.237 80.5146 808.009 80.5146C802.246 80.5146 796.78 79.4066 791.584 77.2398C786.659 75.3193 782.276 72.5862 778.434 69.016C774.593 65.4458 771.589 61.3585 769.397 56.6803C767.206 51.7559 766.122 46.4128 766.122 40.6512C766.122 35.1851 767.206 29.9652 769.397 25.0408C771.589 20.1163 774.593 15.8567 778.434 12.3111C782.276 8.47004 786.659 5.46613 791.584 3.27475C796.78 1.08338 802.271 0 808.009 0C819.237 0 828.816 3.84106 836.77 11.4986C844.995 19.1807 849.107 28.7587 849.107 40.2573Z" fill="#0576F6"/>
</g>
<defs>
<clipPath id="clip0">
<rect width="1686" height="334" fill="white" transform="translate(-123)"/>
</clipPath>
</defs>
</svg>
